<?xml version="1.0" encoding="UTF-8" standalone="no"?>
<!-- Created with Inkscape (http://www.inkscape.org/) -->

<svg
   xmlns:dc="http://purl.org/dc/elements/1.1/"
   xmlns:cc="http://creativecommons.org/ns#"
   xmlns:rdf="http://www.w3.org/1999/02/22-rdf-syntax-ns#"
   xmlns:svg="http://www.w3.org/2000/svg"
   xmlns="http://www.w3.org/2000/svg"
   version="1.1"
   width="90"
   height="90"
   id="svg3140">
  <defs
     id="defs3057" />
  <metadata
     id="metadata3145">
    <rdf:RDF>
      <cc:Work
         rdf:about="">
        <dc:format>image/svg+xml</dc:format>
        <dc:type
           rdf:resource="http://purl.org/dc/dcmitype/StillImage" />
        <dc:title></dc:title>
      </cc:Work>
    </rdf:RDF>
  </metadata>
  <g
     transform="translate(0,-962.36)"
     id="layer1">
    <rect
       width="90"
       height="90"
       x="0"
       y="962.35999"
       id="rect4198"
       style="color:#000000;fill:none" />
    <g
       transform="translate(-60,548)"
       id="g4978">
      <path
         d="m 101,414.36 c -6,0 -8,0 -8,5 v 7 h 3 v -6 h 18 v 6 h 3 v -7 c 0,-5 -2,-5 -8,-5 z"
         id="path4385"
         style="text-indent:0;text-transform:none;block-progression:tb;color:#000000;fill:#df382c;fill-opacity:1" />
      <path
         d="m 12,33 v 39 c 0,18 3,18 30,18 h 6 c 27,0 30,-1e-5 30,-18 V 33 H 66 v 36 c 0,3 -1,3 -3,3 -2,2e-5 -3,2e-5 -3,-3 V 33 H 48 v 36 c 0,3 -1,3 -3,3 -2,2e-5 -3,2e-5 -3,-3 V 33 H 30 v 36 c 0,3 -1,3 -3,3 -2,1.5e-5 -2.9167,-0.0011 -3,-3 V 33 z"
         transform="translate(60,414.36)"
         id="rect2988"
         style="color:#000000;fill:#df382c;fill-opacity:1" />
      <path
         d="m 99,423.36 c -27,0 -30,10e-6 -30,18 h 72 c 0,-18 -3,-18 -30,-18 z"
         id="path3783"
         style="color:#000000;fill:#df382c;fill-opacity:1" />
      <rect
         width="90"
         height="90"
         x="0"
         y="1.5259e-05"
         transform="translate(60,414.36)"
         id="rect2989"
         style="color:#000000;fill:none" />
    </g>
  </g>
</svg>
